<?xml version="1.0" encoding="UTF-8" standalone="no"?>
<svg width="600" height="400" viewBox="0 0 600 400" xmlns="http://www.w3.org/2000/svg">
  <defs>
    <linearGradient id="gradient" x1="0%" y1="0%" x2="100%" y2="100%">
      <stop offset="0%" stop-color="#5e72e4"/>
      <stop offset="100%" stop-color="#825ee4"/>
    </linearGradient>
  </defs>
  
  <!-- Background -->
  <rect width="600" height="400" fill="#f8f9fa" rx="10" ry="10"/>
  
  <!-- Feature Cards -->
  <g transform="translate(50, 50)">
    <!-- Card 1: Prompt Library -->
    <rect x="0" y="0" width="150" height="130" rx="8" ry="8" fill="#ffffff" stroke="#e9ecef" stroke-width="2"/>
    <circle cx="30" cy="30" r="15" fill="url(#gradient)"/>
    <path d="M25 30 L35 30 M30 25 L30 35" stroke="#ffffff" stroke-width="2"/>
    <text x="75" y="30" font-family="Arial" font-size="12" text-anchor="middle" fill="#212529">Prompt Library</text>
    <rect x="15" y="50" width="120" height="10" rx="2" ry="2" fill="#f8f9fa"/>
    <rect x="15" y="70" width="120" height="10" rx="2" ry="2" fill="#f8f9fa"/>
    <rect x="15" y="90" width="120" height="10" rx="2" ry="2" fill="#f8f9fa"/>
    <rect x="15" y="110" width="80" height="10" rx="2" ry="2" fill="#f8f9fa"/>
  </g>
  
  <g transform="translate(225, 50)">
    <!-- Card 2: Fast Retrieval -->
    <rect x="0" y="0" width="150" height="130" rx="8" ry="8" fill="#ffffff" stroke="#e9ecef" stroke-width="2"/>
    <circle cx="30" cy="30" r="15" fill="url(#gradient)"/>
    <path d="M25 30 L35 30 M35 30 L32 27 M35 30 L32 33" stroke="#ffffff" stroke-width="2"/>
    <text x="75" y="30" font-family="Arial" font-size="12" text-anchor="middle" fill="#212529">Fast Retrieval</text>
    <rect x="15" y="50" width="120" height="10" rx="2" ry="2" fill="#f8f9fa"/>
    <rect x="15" y="70" width="120" height="10" rx="2" ry="2" fill="#f8f9fa"/>
    <rect x="15" y="90" width="120" height="10" rx="2" ry="2" fill="#f8f9fa"/>
    <rect x="15" y="110" width="80" height="10" rx="2" ry="2" fill="#f8f9fa"/>
  </g>
  
  <g transform="translate(400, 50)">
    <!-- Card 3: Sorting & Filtering -->
    <rect x="0" y="0" width="150" height="130" rx="8" ry="8" fill="#ffffff" stroke="#e9ecef" stroke-width="2"/>
    <circle cx="30" cy="30" r="15" fill="url(#gradient)"/>
    <path d="M25 25 L35 25 M25 30 L32 30 M25 35 L29 35" stroke="#ffffff" stroke-width="2"/>
    <text x="75" y="30" font-family="Arial" font-size="12" text-anchor="middle" fill="#212529">Sorting & Filtering</text>
    <rect x="15" y="50" width="120" height="10" rx="2" ry="2" fill="#f8f9fa"/>
    <rect x="15" y="70" width="120" height="10" rx="2" ry="2" fill="#f8f9fa"/>
    <rect x="15" y="90" width="120" height="10" rx="2" ry="2" fill="#f8f9fa"/>
    <rect x="15" y="110" width="80" height="10" rx="2" ry="2" fill="#f8f9fa"/>
  </g>
  
  <g transform="translate(50, 200)">
    <!-- Card 4: Data Portability -->
    <rect x="0" y="0" width="150" height="130" rx="8" ry="8" fill="#ffffff" stroke="#e9ecef" stroke-width="2"/>
    <circle cx="30" cy="30" r="15" fill="url(#gradient)"/>
    <path d="M25 30 L35 30 M30 25 L30 35 M27 27 L33 33 M27 33 L33 27" stroke="#ffffff" stroke-width="1"/>
    <text x="75" y="30" font-family="Arial" font-size="12" text-anchor="middle" fill="#212529">Data Portability</text>
    <rect x="15" y="50" width="120" height="10" rx="2" ry="2" fill="#f8f9fa"/>
    <rect x="15" y="70" width="120" height="10" rx="2" ry="2" fill="#f8f9fa"/>
    <rect x="15" y="90" width="120" height="10" rx="2" ry="2" fill="#f8f9fa"/>
    <rect x="15" y="110" width="80" height="10" rx="2" ry="2" fill="#f8f9fa"/>
  </g>
  
  <g transform="translate(225, 200)">
    <!-- Card 5: Cloud & Backup -->
    <rect x="0" y="0" width="150" height="130" rx="8" ry="8" fill="#ffffff" stroke="#e9ecef" stroke-width="2"/>
    <circle cx="30" cy="30" r="15" fill="url(#gradient)"/>
    <path d="M25 33 C25 28, 30 25, 35 28 C37 23, 42 23, 43 28 C48 28, 48 35, 43 35 L28 35 C25 35, 22 35, 25 33 Z" stroke="#ffffff" stroke-width="1" fill="none"/>
    <text x="75" y="30" font-family="Arial" font-size="12" text-anchor="middle" fill="#212529">Cloud & Backup</text>
    <rect x="15" y="50" width="120" height="10" rx="2" ry="2" fill="#f8f9fa"/>
    <rect x="15" y="70" width="120" height="10" rx="2" ry="2" fill="#f8f9fa"/>
    <rect x="15" y="90" width="120" height="10" rx="2" ry="2" fill="#f8f9fa"/>
    <rect x="15" y="110" width="80" height="10" rx="2" ry="2" fill="#f8f9fa"/>
  </g>
  
  <g transform="translate(400, 200)">
    <!-- Card 6: Privacy & Security -->
    <rect x="0" y="0" width="150" height="130" rx="8" ry="8" fill="#ffffff" stroke="#e9ecef" stroke-width="2"/>
    <circle cx="30" cy="30" r="15" fill="url(#gradient)"/>
    <path d="M30 25 L30 35 M27 30 L33 30 M25 37 C25 37, 30 42, 35 37" stroke="#ffffff" stroke-width="1"/>
    <text x="75" y="30" font-family="Arial" font-size="12" text-anchor="middle" fill="#212529">Privacy & Security</text>
    <rect x="15" y="50" width="120" height="10" rx="2" ry="2" fill="#f8f9fa"/>
    <rect x="15" y="70" width="120" height="10" rx="2" ry="2" fill="#f8f9fa"/>
    <rect x="15" y="90" width="120" height="10" rx="2" ry="2" fill="#f8f9fa"/>
    <rect x="15" y="110" width="80" height="10" rx="2" ry="2" fill="#f8f9fa"/>
  </g>
</svg>
